<svg xmlns="http://www.w3.org/2000/svg" version="1.1" xmlns:xlink="http://www.w3.org/1999/xlink" xmlns:svgjs="http://svgjs.com/svgjs" width="1400" height="500" preserveAspectRatio="none" viewBox="0 0 1400 500"><g mask="url(&quot;#SvgjsMask1198&quot;)" fill="none"><rect width="1400" height="500" x="0" y="0" fill="rgba(99, 97, 171, 1)"></rect><path d="M0,554.571C101.622,567.722,188.142,481.12,267.672,416.506C340.337,357.469,405.389,287.695,436.968,199.557C467.122,115.397,457.612,24.358,439.546,-63.197C422.339,-146.589,388.602,-224.168,335.76,-290.937C281.107,-359.994,209.793,-409.015,132.481,-451.189C37.191,-503.17,-61.718,-595.469,-165.757,-564.515C-269.853,-533.544,-292.491,-396.206,-353.749,-306.525C-406.968,-228.613,-482.44,-164.476,-502.054,-72.184C-522.324,23.193,-516.979,130.059,-463.919,211.865C-412.837,290.621,-302.072,296.769,-226.568,352.546C-143.499,413.911,-102.423,541.316,0,554.571" fill="#3e3d72"></path><path d="M1400 1020.85C1507.791 1027.357 1622.3600000000001 1045.476 1716.07 991.8140000000001 1811.309 937.277 1879.487 837.5840000000001 1906.0140000000001 731.0889999999999 1930.7559999999999 631.762 1871.27 535.639 1854.868 434.6 1838.85 335.923 1865.608 227.66000000000003 1810.728 144.10199999999998 1753.403 56.822 1655.345 0.5459999999999923 1553.799-23.79200000000003 1454.753-47.53099999999995 1348.101-33.25300000000004 1256.494 11.26400000000001 1172.16 52.247000000000014 1129.365 141.42399999999998 1067.975 212.298 1006.5989999999999 283.156 917.826 336.374 895.9359999999999 427.526 873.427 521.255 913.5889999999999 616.282 949.4739999999999 705.748 986.864 798.967 1025.233 897.514 1107.538 955.079 1191.113 1013.532 1298.1970000000001 1014.704 1400 1020.85" fill="#a09ecc"></path></g><defs><mask id="SvgjsMask1198"><rect width="1400" height="500" fill="#ffffff"></rect></mask></defs></svg>