<svg xmlns="http://www.w3.org/2000/svg" version="1.1" xmlns:xlink="http://www.w3.org/1999/xlink" xmlns:svgjs="http://svgjs.com/svgjs" width="800" height="560" preserveAspectRatio="none" viewBox="0 0 800 560"><g mask="url(&quot;#SvgjsMask1102&quot;)" fill="none"><rect width="800" height="560" x="0" y="0" fill="url(#SvgjsLinearGradient1103)"></rect><path d="M800 0L708.94 0L800 76.49z" fill="rgba(255, 255, 255, .1)"></path><path d="M708.94 0L800 76.49L800 141.05L551.59 0z" fill="rgba(255, 255, 255, .075)"></path><path d="M551.59 0L800 141.05L800 224.9L384.19000000000005 0z" fill="rgba(255, 255, 255, .05)"></path><path d="M384.19 0L800 224.9L800 455.13L204.81 0z" fill="rgba(255, 255, 255, .025)"></path><path d="M0 560L172.17 560L0 431.78999999999996z" fill="rgba(0, 0, 0, .1)"></path><path d="M0 431.78999999999996L172.17 560L509.52 560L0 198.88999999999996z" fill="rgba(0, 0, 0, .075)"></path><path d="M0 198.89L509.52 560L540.42 560L0 185z" fill="rgba(0, 0, 0, .05)"></path><path d="M0 185L540.42 560L648.74 560L0 62.81999999999999z" fill="rgba(0, 0, 0, .025)"></path></g><defs><mask id="SvgjsMask1102"><rect width="800" height="560" fill="#ffffff"></rect></mask><linearGradient x1="0%" y1="50%" x2="100%" y2="50%" gradientUnits="userSpaceOnUse" id="SvgjsLinearGradient1103"><stop stop-color="#0e2a47" offset="0"></stop><stop stop-color="#00459e" offset="1"></stop></linearGradient></defs></svg>